<svg xmlns="http://www.w3.org/2000/svg" width="800" height="800" version="1.0" viewBox="0 0 600 600"><path d="M270.1 212.6c0 1.1.3 1.4.6.6.3-.7.2-1.6-.1-1.9-.3-.4-.6.2-.5 1.3zM350.3 220.7c2.6.2 6.7.2 9 0s.2-.3-4.8-.3c-4.9 0-6.8.1-4.2.3zM230.3 339.5c0 2.7.2 3.8.4 2.2.2-1.5.2-3.7 0-5-.2-1.2-.4 0-.4 2.8zM273 336.4c0 .2.8 1 1.8 1.7 1.5 1.3 1.6 1.2.3-.4s-2.1-2.1-2.1-1.3zM393 385.4c0 .2.8 1 1.8 1.7 1.5 1.3 1.6 1.2.3-.4s-2.1-2.1-2.1-1.3zM270.1 387.6c0 1.1.3 1.4.6.6.3-.7.2-1.6-.1-1.9-.3-.4-.6.2-.5 1.3zM232.8 390.7c6.7.2 17.7.2 24.5 0 6.7-.1 1.2-.3-12.3-.3s-19 .2-12.2.3zM349.8 390.7c8.9.2 23.5.2 32.5 0 8.9-.1 1.6-.3-16.3-.3-17.9 0-25.2.2-16.2.3z"/></svg>